{
.appVersion = "3151";
.formatVersion = 3;
customParameters = (
{
name = vendorID;
value = COMM;
},
{
name = panose;
value = (
2,
13,
2,
4,
3,
5,
2,
5,
2,
3
);
},
{
name = unicodeRanges;
value = (
0,
1,
2
);
},
{
name = codePageRanges;
value = (
"1252",
"1250",
"1254",
"1257",
"bit 29"
);
},
{
name = fsType;
value = (
2
);
},
{
name = blueScale;
value = 0.0384;
},
{
name = glyphOrder;
value = (
.notdef,
Eth,
eth,
Lslash,
lslash,
Scaron,
scaron,
Yacute,
yacute,
Thorn,
thorn,
Zcaron,
zcaron,
onehalf,
onequarter,
onesuperior,
threequarters,
threesuperior,
twosuperior,
brokenbar,
minus,
multiply,
space,
exclam,
quotedbl,
numbersign,
dollar,
percent,
ampersand,
quotesingle,
parenleft,
parenright,
asterisk,
plus,
comma,
hyphen,
period,
slash,
zero,
one,
two,
three,
four,
five,
six,
seven,
eight,
nine,
colon,
semicolon,
less,
equal,
greater,
question,
at,
A,
B,
C,
D,
E,
F,
G,
H,
I,
J,
K,
L,
M,
N,
O,
P,
Q,
R,
S,
T,
U,
V,
W,
X,
Y,
Z,
bracketleft,
backslash,
bracketright,
asciicircum,
underscore,
grave,
a,
b,
c,
d,
e,
f,
g,
h,
i,
j,
k,
l,
m,
n,
o,
p,
q,
r,
s,
t,
u,
v,
w,
x,
y,
z,
braceleft,
bar,
braceright,
asciitilde,
Adieresis,
Aring,
Ccedilla,
Eacute,
Ntilde,
Odieresis,
Udieresis,
aacute,
agrave,
acircumflex,
adieresis,
atilde,
aring,
ccedilla,
eacute,
egrave,
ecircumflex,
edieresis,
iacute,
igrave,
icircumflex,
idieresis,
ntilde,
oacute,
ograve,
ocircumflex,
odieresis,
otilde,
uacute,
ugrave,
ucircumflex,
udieresis,
dagger,
degree,
cent,
sterling,
section,
bullet,
paragraph,
germandbls,
registered,
copyright,
trademark,
acute,
dieresis,
notequal,
AE,
Oslash,
infinity,
plusminus,
lessequal,
greaterequal,
yen,
mu,
partialdiff,
summation,
product,
pi,
integral,
ordfeminine,
ordmasculine,
Omega,
ae,
oslash,
questiondown,
exclamdown,
logicalnot,
radical,
florin,
approxequal,
Delta,
guillemotleft,
guillemotright,
ellipsis,
uni00A0,
Agrave,
Atilde,
Otilde,
OE,
oe,
endash,
emdash,
quotedblleft,
quotedblright,
quoteleft,
quoteright,
divide,
lozenge,
ydieresis,
Ydieresis,

glyphs = (
{
glyphname = zero;
kernLeft = zero;
kernRight = zero;
lastChange = "2023-04-10 06:21:05 +0000";
layers = (
{
hints = (
{
horizontal = 1;
place = (-7, 14);
place = (-7, 14);
type = Stem;
},
{
horizontal = 1;
place = (679, 14);
place = (679, 14);
type = Stem;
},
{
place = (44, 15);
place = (44, 15);
type = Stem;
},
{
place = (529, 15);
place = (529, 15);
type = Stem;
}
);
layerId = m01;
shapes = (
{
closed = 1;
nodes = (
(148,693,o),
(44,558,o),
(44,343,cs),
(44,131,o),
(141,-7,o),
(295,-7,cs),
(449,-7,o),
(544,131,o),
(544,343,cs),
(544,564,o),
(441,693,o),
(295,693,cs)
);
},
{
closed = 1;
nodes = (
(433,679,o),
(529,552,o),
(529,343,cs),
(529,140,o),
(440,7,o),
(295,7,cs),
(149,7,o),
(59,140,o),
(59,343,cs),
(59,550,o),
(157,679,o),
(295,679,cs)
);
},
{
closed = 1;
nodes = (
(0,-182,l),
(588,-182,l),
(588,818,l),
(0,818,l)
);
}
);
width = 588;
}
);
note = zero;
unicode = 48;
},
{
glyphname = one;
kernLeft = one;
kernRight = one;
lastChange = "2023-04-03 22:00:43 +0000";
layers = (
{
hints = (
{
horizontal = 1;
place = (0, 21);
target = up;
type = BottomGhost;
},
{
horizontal = 1;
place = (535, 14);
place = (535, 14);
type = Stem;
},
{
horizontal = 1;
place = (688, -20);
target = down;
type = TopGhost;
},
{
place = (196, 15);
place = (196, 15);
type = Stem;
}
);
layerId = m01;
shapes = (
{
closed = 1;
nodes = (
(184,578,o),
(126,550,o),
(34,549,c),
(34,535,l),
(113,536,o),
(169,555,o),
(196,624,c),
(196,0,l),
(211,0,l),
(211,688,l),
(196,688,l)
);
}
);
width = 289;
}
);
note = one;
unicode = 49;
},
{
glyphname = two;
kernLeft = two;
kernRight = two;
lastChange = "2023-04-09 03:59:30 +0000";
layers = (
{
hints = (
{
horizontal = 1;
place = (0, 14);
place = (0, 14);
type = Stem;
},
{
horizontal = 1;
place = (686, 14);
place = (686, 14);
type = Stem;
},
{
place = (31, 15);
place = (31, 15);
type = Stem;
},
{
place = (468, 14);
place = (468, 14);
type = Stem;
},
{
place = (48, 14);
place = (48, 14);
type = Stem;
}
);
layerId = m01;
shapes = (
{
closed = 1;
nodes = (
(62,482,l),
(62,587,o),
(132,686,o),
(267,686,cs),
(395,686,o),
(468,610,o),
(468,502,cs),
(468,390,o),
(379,347,o),
(271,293,cs),
(149,232,o),
(35,162,o),
(31,0,c),
(483,0,l),
(483,14,l),
(46,14,l),
(53,156,o),
(162,224,o),
(277,281,cs),
(390,337,o),
(482,383,o),
(482,502,cs),
(482,616,o),
(403,700,o),
(267,700,cs),
(123,700,o),
(48,592,o),
(48,482,c)
);
},
{
closed = 1;
nodes = (
(0,-182,l),
(519,-182,l),
(519,818,l),
(0,818,l)
);
}
);
width = 519;
}
);
note = two;
unicode = 50;
},
{
glyphname = three;
kernLeft = three;
kernRight = three;
lastChange = "2023-04-03 23:51:45 +0000";
layers = (
{
hints = (
{
horizontal = 1;
place = (-7, 14);
place = (-7, 14);
type = Stem;
},
{
horizontal = 1;
place = (357, 14);
place = (357, 14);
type = Stem;
},
{
horizontal = 1;
place = (679, 14);
place = (679, 14);
type = Stem;
},
{
place = (18, 14);
place = (18, 14);
type = Stem;
},
{
place = (500, 14);
place = (500, 14);
type = Stem;
},
{
place = (42, 14);
place = (42, 14);
type = Stem;
},
{
place = (470, 14);
place = (470, 14);
type = Stem;
}
);
layerId = m01;
shapes = (
{
closed = 1;
nodes = (
(56,494,l),
(62,591,o),
(125,679,o),
(265,679,cs),
(385,679,o),
(470,614,o),
(470,511,cs),
(470,434,o),
(406,371,o),
(296,371,cs),
(227,371,l),
(227,357,l),
(296,357,ls),
(407,357,o),
(500,300,o),
(500,195,cs),
(500,74,o),
(407,7,o),
(277,7,cs),
(129,7,o),
(44,91,o),
(32,208,c),
(18,208,l),
(28,86,o),
(120,-7,o),
(277,-7,cs),
(415,-7,o),
(514,69,o),
(514,194,cs),
(514,290,o),
(444,349,o),
(353,364,c),
(353,364,l),
(437,382,o),
(484,443,o),
(484,511,cs),
(484,622,o),
(393,693,o),
(265,693,cs),
(117,693,o),
(48,599,o),
(42,494,c)
);
}
);
width = 546;
}
);
note = three;
unicode = 51;
},
{
glyphname = four;
kernLeft = four;
kernRight = four;
lastChange = "2023-04-03 22:00:14 +0000";
layers = (
{
hints = (
{
horizontal = 1;
place = (0, 21);
target = up;
type = BottomGhost;
},
{
horizontal = 1;
place = (195, 14);
place = (195, 14);
type = Stem;
},
{
horizontal = 1;
place = (669, 23);
place = (669, 23);
type = Stem;
},
{
place = (26, 18);
place = (26, 18);
type = Stem;
},
{
place = (396, 15);
place = (396, 15);
type = Stem;
}
);
layerId = m01;
shapes = (
{
closed = 1;
nodes = (
(26,195,l),
(396,195,l),
(396,0,l),
(411,0,l),
(411,195,l),
(525,195,l),
(525,209,l),
(411,209,l),
(411,692,l),
(395,692,l),
(26,209,l)
);
},
{
closed = 1;
nodes = (
(396,669,l),
(396,209,l),
(44,209,l)
);
}
);
width = 547;
}
);
note = four;
unicode = 52;
},
{
glyphname = five;
kernLeft = five;
kernRight = five;
lastChange = "2023-04-04 01:35:13 +0000";
layers = (
{
hints = (
{
horizontal = 1;
place = (-7, 14);
place = (-7, 14);
type = Stem;
},
{
horizontal = 1;
place = (428, 14);
place = (428, 14);
type = Stem;
},
{
horizontal = 1;
place = (671, 14);
place = (671, 14);
type = Stem;
},
{
place = (473, 15);
place = (473, 15);
type = Stem;
}
);
layerId = m01;
shapes = (
{
closed = 1;
nodes = (
(126,685,l),
(46,331,l),
(60,331,l),
(90,377,o),
(151,428,o),
(258,428,cs),
(396,428,o),
(473,334,o),
(473,218,cs),
(473,83,o),
(373,7,o),
(258,7,cs),
(109,7,o),
(51,96,o),
(38,184,c),
(23,184,l),
(35,90,o),
(100,-7,o),
(258,-7,cs),
(381,-7,o),
(488,76,o),
(488,218,cs),
(488,340,o),
(405,442,o),
(258,442,cs),
(165,442,o),
(101,403,o),
(67,361,c),
(67,361,l),
(137,671,l),
(448,671,l),
(448,685,l)
);
}
);
width = 520;
}
);
note = five;
unicode = 53;
},
{
glyphname = six;
kernLeft = six;
kernRight = six;
lastChange = "2023-04-04 18:13:02 +0000";
layers = (
{
hints = (
{
horizontal = 1;
place = (-7, 14);
place = (-7, 14);
type = Stem;
},
{
horizontal = 1;
place = (418, 14);
place = (418, 14);
type = Stem;
},
{
horizontal = 1;
place = (679, 14);
place = (679, 14);
type = Stem;
},
{
place = (44, 15);
place = (44, 15);
type = Stem;
},
{
place = (501, 15);
place = (501, 15);
type = Stem;
},
{
place = (480, 15);
place = (480, 15);
type = Stem;
},
{
place = (67, 13);
place = (67, 13);
type = Stem;
}
);
layerId = m01;
shapes = (
{
closed = 1;
nodes = (
(485,630,o),
(405,693,o),
(289,693,cs),
(137,693,o),
(44,585,o),
(44,332,cs),
(44,136,o),
(111,-7,o),
(297,-7,cs),
(406,-7,o),
(516,73,o),
(516,220,cs),
(516,343,o),
(422,432,o),
(290,432,cs),
(151,432,o),
(71,334,o),
(67,217,c),
(67,217,l),
(42,365,o),
(51,679,o),
(289,679,cs),
(396,679,o),
(469,624,o),
(480,526,c),
(495,526,l)
);
},
{
closed = 1;
nodes = (
(410,418,o),
(501,336,o),
(501,220,cs),
(501,82,o),
(398,7,o),
(297,7,cs),
(174,7,o),
(80,87,o),
(80,208,cs),
(80,309,o),
(149,418,o),
(291,418,cs)
);
}
);
width = 554;
}
);
note = six;
unicode = 54;
},
{
glyphname = seven;
kernLeft = seven;
kernRight = seven;
lastChange = "2023-04-04 01:42:01 +0000";
layers = (
{
hints = (
{
horizontal = 1;
place = (0, 21);
target = up;
type = BottomGhost;
},
{
horizontal = 1;
place = (671, 14);
place = (671, 14);
type = Stem;
},
{
place = (156, 15);
place = (156, 15);
type = Stem;
},
{
place = (471, 20);
place = (471, 20);
type = Stem;
}
);
layerId = m01;
shapes = (
{
closed = 1;
nodes = (
(23,671,l),
(471,671,l),
(264,462,o),
(160,255,o),
(156,0,c),
(171,0,l),
(175,252,o),
(275,455,o),
(491,671,c),
(491,685,l),
(23,685,l)
);
}
);
width = 502;
}
);
note = seven;
unicode = 55;
},
{
glyphname = eight;
kernLeft = eight;
kernRight = eight;
lastChange = "2023-04-04 18:16:07 +0000";
layers = (
{
hints = (
{
horizontal = 1;
place = (-7, 14);
place = (-7, 14);
type = Stem;
},
{
horizontal = 1;
place = (370, 14);
place = (370, 14);
type = Stem;
},
{
horizontal = 1;
place = (680, 14);
place = (680, 14);
type = Stem;
},
{
place = (33, 15);
place = (33, 15);
type = Stem;
},
{
place = (514, 15);
place = (514, 15);
type = Stem;
},
{
place = (75, 15);
place = (75, 15);
type = Stem;
},
{
place = (472, 15);
place = (472, 15);
type = Stem;
}
);
layerId = m01;
shapes = (
{
closed = 1;
nodes = (
(160,694,o),
(75,629,o),
(75,533,cs),
(75,458,o),
(125,401,o),
(215,378,c),
(215,378,l),
(104,358,o),
(33,290,o),
(33,190,cs),
(33,71,o),
(134,-7,o),
(284,-7,cs),
(431,-7,o),
(529,72,o),
(529,190,cs),
(529,290,o),
(458,359,o),
(348,378,c),
(348,378,l),
(436,400,o),
(487,457,o),
(487,533,cs),
(487,629,o),
(403,694,o),
(281,694,cs)
);
},
{
closed = 1;
nodes = (
(424,370,o),
(514,302,o),
(514,190,cs),
(514,80,o),
(423,7,o),
(284,7,cs),
(142,7,o),
(48,79,o),
(48,190,cs),
(48,302,o),
(141,370,o),
(281,370,cs)
);
},
{
closed = 1;
nodes = (
(395,680,o),
(472,621,o),
(472,533,cs),
(472,443,o),
(395,384,o),
(281,384,cs),
(168,384,o),
(90,444,o),
(90,533,cs),
(90,621,o),
(168,680,o),
(281,680,cs)
);
}
);
width = 562;
}
);
note = eight;
unicode = 56;
},
{
glyphname = nine;
kernLeft = nine;
kernRight = nine;
lastChange = "2023-04-04 02:06:57 +0000";
layers = (
{
hints = (
{
horizontal = 1;
place = (-7, 14);
place = (-7, 14);
type = Stem;
},
{
horizontal = 1;
place = (254, 14);
place = (254, 14);
type = Stem;
},
{
horizontal = 1;
place = (679, 14);
place = (679, 14);
type = Stem;
},
{
place = (39, 15);
place = (39, 15);
type = Stem;
},
{
place = (497, 15);
place = (497, 15);
type = Stem;
},
{
place = (476, 13);
place = (476, 13);
type = Stem;
}
);
layerId = m01;
shapes = (
{
closed = 1;
nodes = (
(403,254,o),
(483,350,o),
(489,466,c),
(513,326,o),
(525,7,o),
(270,7,cs),
(163,7,o),
(80,64,o),
(66,160,c),
(51,160,l),
(65,56,o),
(155,-7,o),
(271,-7,cs),
(456,-7,o),
(512,139,o),
(512,327,cs),
(512,543,o),
(459,693,o),
(257,693,cs),
(148,693,o),
(39,619,o),
(39,468,cs),
(39,343,o),
(137,254,o),
(263,254,cs)
);
},
{
closed = 1;
nodes = (
(144,268,o),
(54,354,o),
(54,468,cs),
(54,609,o),
(156,679,o),
(257,679,cs),
(402,679,o),
(476,581,o),
(476,478,cs),
(476,378,o),
(409,268,o),
(263,268,cs)
);
}
);
width = 552;
}
);
note = nine;
unicode = 57;
},
{
glyphname = A;
kernLeft = A;
kernRight = A;
lastChange = "2023-04-04 19:43:25 +0000";
layers = (
{
hints = (
{
horizontal = 1;
place = (0, 21);
target = up;
type = BottomGhost;
},
{
horizontal = 1;
place = (256, 14);
place = (256, 14);
type = Stem;
},
{
horizontal = 1;
place = (695, 20);
place = (695, 20);
type = Stem;
},
{
place = (10, 568);
place = (10, 568);
type = Stem;
}
);
layerId = m01;
shapes = (
{
closed = 1;
nodes = (
(10,0,l),
(26,0,l),
(125,256,l),
(463,256,l),
(562,0,l),
(578,0,l),
(303,715,l),
(285,715,l)
);
},
{
closed = 1;
nodes = (
(458,270,l),
(130,270,l),
(294,695,l)
);
}
);
width = 588;
}
);
note = A;
unicode = 65;
},
{
glyphname = B;
lastChange = "2023-04-04 19:43:29 +0000";
layers = (
{
hints = (
{
horizontal = 1;
place = (0, 14);
place = (0, 14);
type = Stem;
},
{
horizontal = 1;
place = (370, 14);
place = (370, 14);
type = Stem;
},
{
horizontal = 1;
place = (701, 14);
place = (701, 14);
type = Stem;
},
{
place = (67, 15);
place = (67, 15);
type = Stem;
},
{
place = (535, 15);
place = (535, 15);
type = Stem;
},
{
place = (566, 15);
place = (566, 15);
type = Stem;
}
);
layerId = m01;
shapes = (
{
closed = 1;
nodes = (
(67,0,l),
(351,0,ls),
(479,0,o),
(581,71,o),
(581,198,cs),
(581,292,o),
(520,359,o),
(422,378,c),
(499,400,o),
(550,459,o),
(550,535,cs),
(550,660,o),
(459,715,o),
(334,715,cs),
(67,715,l)
);
},
{
closed = 1;
nodes = (
(333,701,ls),
(449,701,o),
(535,648,o),
(535,535,cs),
(535,449,o),
(462,387,o),
(369,384,cs),
(82,384,l),
(82,701,l)
);
},
{
closed = 1;
nodes = (
(371,370,ls),
(487,367,o),
(566,301,o),
(566,198,cs),
(566,79,o),
(469,14,o),
(350,14,cs),
(82,14,l),
(82,370,l)
);
}
);
width = 608;
}
);
note = B;
unicode = 66;
},
{
glyphname = C;
kernLeft = C;
kernRight = C;
lastChange = "2023-04-04 02:16:26 +0000";
layers = (
{
hints = (
{
horizontal = 1;
place = (-9, 14);
place = (-9, 14);
type = Stem;
},
{
horizontal = 1;
place = (709, 14);
place = (709, 14);
type = Stem;
},
{
place = (40, 15);
place = (40, 15);
type = Stem;
},
{
place = (642, 14);
place = (642, 14);
type = Stem;
}
);
layerId = m01;
shapes = (
{
closed = 1;
nodes = (
(629,619,o),
(535,723,o),
(371,723,cs),
(167,723,o),
(40,571,o),
(40,358,cs),
(40,136,o),
(171,-9,o),
(367,-9,cs),
(541,-9,o),
(644,118,o),
(656,253,c),
(642,253,l),
(627,122,o),
(533,5,o),
(367,5,cs),
(178,5,o),
(55,146,o),
(55,358,cs),
(55,562,o),
(173,709,o),
(371,709,cs),
(527,709,o),
(616,611,o),
(632,510,c),
(646,510,l)
);
}
);
width = 690;
}
);
note = C;
unicode = 67;
},
{
glyphname = D;
kernRight = Eth;
lastChange = "2023-04-04 19:43:32 +0000";
layers = (
{
hints = (
{
horizontal = 1;
place = (0, 13);
place = (0, 13);
type = Stem;
},
{
horizontal = 1;
place = (701, 14);
place = (701, 14);
type = Stem;
},
{
place = (67, 14);
place = (67, 14);
type = Stem;
},
{
place = (605, 15);
place = (605, 15);
type = Stem;
}
);
layerId = m01;
shapes = (
{
closed = 1;
nodes = (
(67,0,l),
(321,0,ls),
(527,0,o),
(620,161,o),
(620,354,cs),
(620,544,o),
(535,715,o),
(328,715,cs),
(67,715,l)
);
},
{
closed = 1;
nodes = (
(329,701,ls),
(502,701,o),
(605,565,o),
(605,354,cs),
(605,141,o),
(495,13,o),
(322,13,cs),
(81,13,l),
(81,701,l)
);
}
);
width = 660;
}
);
note = D;
unicode = 68;
},
{
glyphname = E;
kernRight = E;
lastChange = "2023-04-04 02:20:20 +0000";
layers = (
{
hints = (
{
horizontal = 1;
place = (0, 14);
place = (0, 14);
type = Stem;
},
{
horizontal = 1;
place = (364, 14);
place = (364, 14);
type = Stem;
},
{
horizontal = 1;
place = (701, 14);
place = (701, 14);
type = Stem;
},
{
place = (67, 15);
place = (67, 15);
type = Stem;
}
);
layerId = m01;
shapes = (
{
closed = 1;
nodes = (
(67,0,l),
(544,0,l),
(544,14,l),
(82,14,l),
(82,364,l),
(499,364,l),
(499,378,l),
(82,378,l),
(82,701,l),
(534,701,l),
(534,715,l),
(67,715,l)
);
}
);
width = 582;
}
);
note = E;
unicode = 69;
},
{
glyphname = F;
kernRight = F;
lastChange = "2023-04-04 02:21:07 +0000";
layers = (
{
hints = (
{
horizontal = 1;
place = (0, 21);
target = up;
type = BottomGhost;
},
{
horizontal = 1;
place = (368, 14);
place = (368, 14);
type = Stem;
},
{
horizontal = 1;
place = (701, 14);
place = (701, 14);
type = Stem;
},
{
place = (67, 15);
place = (67, 15);
type = Stem;
}
);
layerId = m01;
shapes = (
{
closed = 1;
nodes = (
(67,0,l),
(82,0,l),
(82,368,l),
(469,368,l),
(469,382,l),
(82,382,l),
(82,701,l),
(533,701,l),
(533,715,l),
(67,715,l)
);
}
);
width = 559;
}
);
note = F;
unicode = 70;
},
{
glyphname = G;
kernLeft = C;
kernRight = G;
lastChange = "2023-04-04 02:24:56 +0000";
layers = (
{
hints = (
{
horizontal = 1;
place = (-9, 14);
place = (-9, 14);
type = Stem;
},
{
horizontal = 1;
place = (335, 14);
place = (335, 14);
type = Stem;
},
{
horizontal = 1;
place = (709, 14);
place = (709, 14);
type = Stem;
},
{
place = (40, 15);
place = (40, 15);
type = Stem;
},
{
place = (647, 15);
place = (647, 15);
type = Stem;
},
{
horizontal = 1;
place = (0, 21);
target = up;
type = BottomGhost;
}
);
layerId = m01;
shapes = (
{
closed = 1;
nodes = (
(630,630,o),
(534,723,o),
(372,723,cs),
(153,723,o),
(40,551,o),
(40,355,cs),
(40,150,o),
(163,-9,o),
(380,-9,cs),
(522,-9,o),
(625,82,o),
(647,202,c),
(647,0,l),
(662,0,l),
(662,349,l),
(390,349,l),
(390,335,l),
(647,335,l),
(647,295,ls),
(647,114,o),
(531,5,o),
(380,5,cs),
(171,5,o),
(55,158,o),
(55,355,cs),
(55,543,o),
(163,709,o),
(372,709,cs),
(526,709,o),
(617,620,o),
(638,510,c),
(652,510,l)
);
}
);
width = 719;
}
);
note = G;
unicode = 71;
},
{
glyphname = H;
layers = (
{
hints = (
{
horizontal = 1;
place = (0, 21);
target = up;
type = BottomGhost;
},
{
horizontal = 1;
place = (374, 14);
place = (374, 14);
type = Stem;
},
{
horizontal = 1;
place = (715, -20);
target = down;
type = TopGhost;
},
{
place = (67, 15);
place = (67, 15);
type = Stem;
},
{
place = (573, 15);
place = (573, 15);
type = Stem;
}
);
layerId = m01;
shapes = (
{
closed = 1;
nodes = (
(67,0,l),
(82,0,l),
(82,374,l),
(573,374,l),
(573,0,l),
(588,0,l),
(588,715,l),
(573,715,l),
(573,388,l),
(82,388,l),
(82,715,l),
(67,715,l)
);
}
);
width = 655;
}
);
note = H;
unicode = 72;
},
{
glyphname = I;
lastChange = "2023-04-04 02:29:08 +0000";
layers = (
{
hints = (
{
horizontal = 1;
place = (0, 21);
target = up;
type = BottomGhost;
},
{
horizontal = 1;
place = (715, -20);
target = down;
type = TopGhost;
},
{
place = (69, 15);
place = (69, 15);
type = Stem;
}
);
layerId = m01;
shapes = (
{
closed = 1;
nodes = (
(69,0,l),
(84,0,l),
(84,715,l),
(69,715,l)
);
}
);
width = 153;
}
);
note = I;
unicode = 73;
},
{
glyphname = J;
kernLeft = J;
kernRight = J;
lastChange = "2023-04-04 02:29:13 +0000";
layers = (
{
hints = (
{
horizontal = 1;
place = (-11, 14);
place = (-11, 14);
type = Stem;
},
{
horizontal = 1;
place = (715, -20);
target = down;
type = TopGhost;
},
{
place = (22, 15);
place = (22, 15);
type = Stem;
},
{
place = (376, 15);
place = (376, 15);
type = Stem;
}
);
layerId = m01;
shapes = (
{
closed = 1;
nodes = (
(376,190,ls),
(376,74,o),
(325,3,o),
(211,3,cs),
(101,3,o),
(37,70,o),
(37,186,cs),
(37,202,l),
(22,202,l),
(22,186,ls),
(22,60,o),
(94,-11,o),
(211,-11,cs),
(335,-11,o),
(391,66,o),
(391,190,cs),
(391,715,l),
(376,715,l)
);
}
);
width = 449;
}
);
note = J;
unicode = 74;
},
{
glyphname = K;
kernRight = K;
lastChange = "2023-04-04 03:11:18 +0000";
layers = (
{
hints = (
{
horizontal = 1;
place = (0, 21);
target = up;
type = BottomGhost;
},
{
horizontal = 1;
place = (715, -20);
target = down;
type = TopGhost;
},
{
place = (67, 15);
place = (67, 15);
type = Stem;
}
);
layerId = m01;
shapes = (
{
closed = 1;
nodes = (
(67,0,l),
(82,0,l),
(82,262,l),
(239,411,l),
(586,0,l),
(604,0,l),
(250,421,l),
(560,715,l),
(539,715,l),
(82,281,l),
(82,715,l),
(67,715,l)
);
}
);
width = 602;
}
);
note = K;
unicode = 75;
},
{
glyphname = L;
kernRight = L;
lastChange = "2023-04-04 03:11:23 +0000";
layers = (
{
hints = (
{
horizontal = 1;
place = (0, 14);
place = (0, 14);
type = Stem;
},
{
horizontal = 1;
place = (715, -20);
target = down;
type = TopGhost;
},
{
place = (67, 15);
place = (67, 15);
type = Stem;
}
);
layerId = m01;
shapes = (
{
closed = 1;
nodes = (
(67,0,l),
(513,0,l),
(513,14,l),
(82,14,l),
(82,715,l),
(67,715,l)
);
}
);
width = 535;
}
);
note = L;
unicode = 76;
},
{
glyphname = M;
lastChange = "2023-04-04 03:12:32 +0000";
layers = (
{
hints = (
{
horizontal = 1;
place = (0, 17);
place = (0, 17);
type = Stem;
},
{
horizontal = 1;
place = (692, 23);
place = (692, 23);
type = Stem;
},
{
place = (67, 15);
place = (67, 15);
type = Stem;
},
{
place = (717, 15);
place = (717, 15);
type = Stem;
}
);
layerId = m01;
shapes = (
{
closed = 1;
nodes = (
(67,0,l),
(82,0,l),
(82,692,l),
(82,692,l),
(392,0,l),
(407,0,l),
(717,692,l),
(717,692,l),
(717,0,l),
(732,0,l),
(732,715,l),
(710,715,l),
(399,17,l),
(399,17,l),
(88,715,l),
(67,715,l)
);
}
);
width = 799;
}
);
note = M;
unicode = 77;
},
{
glyphname = N;
lastChange = "2023-04-04 03:13:01 +0000";
layers = (
{
hints = (
{
horizontal = 1;
place = (0, 21);
target = up;
type = BottomGhost;
},
{
horizontal = 1;
place = (690, 25);
place = (690, 25);
type = Stem;
},
{
place = (67, 15);
place = (67, 15);
type = Stem;
},
{
place = (587, 15);
place = (587, 15);
type = Stem;
},
{
horizontal = 1;
place = (0, 25);
place = (0, 25);
type = Stem;
}
);
layerId = m01;
shapes = (
{
closed = 1;
nodes = (
(67,0,l),
(82,0,l),
(82,690,l),
(82,690,l),
(587,0,l),
(602,0,l),
(602,715,l),
(587,715,l),
(587,25,l),
(587,25,l),
(83,715,l),
(67,715,l)
);
}
);
width = 669;
}
);
note = N;
unicode = 78;
},
{
glyphname = O;
kernLeft = C;
kernRight = O;
lastChange = "2023-04-04 19:43:37 +0000";
layers = (
{
hints = (
{
horizontal = 1;
place = (-8, 14);
place = (-8, 14);
type = Stem;
},
{
horizontal = 1;
place = (709, 14);
place = (709, 14);
type = Stem;
},
{
place = (40, 15);
place = (40, 15);
type = Stem;
},
{
place = (694, 15);
place = (694, 15);
type = Stem;
}
);
layerId = m01;
shapes = (
{
closed = 1;
nodes = (
(180,723,o),
(40,569,o),
(40,357,cs),
(40,145,o),
(180,-8,o),
(374,-8,cs),
(568,-8,o),
(709,146,o),
(709,357,cs),
(709,569,o),
(568,723,o),
(374,723,cs)
);
},
{
closed = 1;
nodes = (
(563,709,o),
(694,555,o),
(694,357,cs),
(694,160,o),
(563,6,o),
(374,6,cs),
(184,6,o),
(55,159,o),
(55,357,cs),
(55,556,o),
(184,709,o),
(374,709,cs)
);
}
);
width = 749;
}
);
note = O;
unicode = 79;
},
{
glyphname = P;
kernRight = P;
lastChange = "2023-04-04 19:43:39 +0000";
layers = (
{
hints = (
{
horizontal = 1;
place = (0, 21);
target = up;
type = BottomGhost;
},
{
horizontal = 1;
place = (333, 14);
place = (333, 14);
type = Stem;
},
{
horizontal = 1;
place = (701, 14);
place = (701, 14);
type = Stem;
},
{
place = (67, 15);
place = (67, 15);
type = Stem;
},
{
place = (525, 15);
place = (525, 15);
type = Stem;
}
);
layerId = m01;
shapes = (
{
closed = 1;
nodes = (
(67,0,l),
(82,0,l),
(82,333,l),
(314,333,ls),
(467,333,o),
(540,404,o),
(540,525,cs),
(540,652,o),
(448,715,o),
(321,715,cs),
(67,715,l)
);
},
{
closed = 1;
nodes = (
(321,701,ls),
(445,701,o),
(525,638,o),
(525,525,cs),
(525,413,o),
(458,347,o),
(314,347,cs),
(82,347,l),
(82,701,l)
);
}
);
width = 560;
}
);
note = P;
unicode = 80;
},
{
glyphname = Q;
kernLeft = C;
kernRight = Q;
lastChange = "2023-04-04 19:43:41 +0000";
layers = (
{
hints = (
{
horizontal = 1;
place = (-9, 14);
place = (-9, 14);
type = Stem;
},
{
horizontal = 1;
place = (709, 14);
place = (709, 14);
type = Stem;
},
{
place = (40, 15);
place = (40, 15);
type = Stem;
},
{
place = (694, 15);
place = (694, 15);
type = Stem;
}
);
layerId = m01;
shapes = (
{
closed = 1;
nodes = (
(180,723,o),
(40,569,o),
(40,357,cs),
(40,145,o),
(180,-9,o),
(374,-9,cs),
(447,-9,o),
(512,13,o),
(566,51,c),
(682,-42,l),
(691,-31,l),
(577,60,l),
(659,125,o),
(709,231,o),
(709,357,cs),
(709,569,o),
(568,723,o),
(374,723,cs)
);
},
{
closed = 1;
nodes = (
(563,709,o),
(694,555,o),
(694,357,cs),
(694,237,o),
(646,133,o),
(566,70,c),
(478,141,l),
(469,130,l),
(554,61,l),
(504,26,o),
(443,5,o),
(374,5,cs),
(184,5,o),
(55,159,o),
(55,357,cs),
(55,556,o),
(184,709,o),
(374,709,cs)
);
}
);
width = 749;
}
);
note = Q;
unicode = 81;
},
{
glyphname = R;
kernRight = R;
lastChange = "2023-04-07 06:28:15 +0000";
layers = (
{
hints = (
{
horizontal = 1;
place = (0, 21);
target = up;
type = BottomGhost;
},
{
horizontal = 1;
place = (335, 14);
place = (335, 14);
type = Stem;
},
{
horizontal = 1;
place = (701, 14);
place = (701, 14);
type = Stem;
},
{
place = (67, 15);
place = (67, 15);
type = Stem;
},
{
place = (539, 15);
place = (539, 15);
type = Stem;
}
);
layerId = m01;
shapes = (
{
closed = 1;
nodes = (
(67,0,l),
(82,0,l),
(82,335,l),
(357,335,ls),
(474,334,o),
(519,272,o),
(522,170,cs),
(523,138,o),
(524,113,o),
(526,92,cs),
(533,19,o),
(544,5,o),
(549,0,c),
(566,0,l),
(566,2,l),
(559,9,o),
(548,18,o),
(541,93,cs),
(539,114,o),
(538,141,o),
(537,174,cs),
(534,269,o),
(495,329,o),
(406,344,c),
(406,344,l),
(509,364,o),
(554,430,o),
(554,525,cs),
(554,648,o),
(467,715,o),
(335,715,cs),
(67,715,l)
);
},
{
closed = 1;
nodes = (
(335,701,ls),
(459,701,o),
(539,638,o),
(539,525,cs),
(539,413,o),
(472,349,o),
(328,349,cs),
(82,349,l),
(82,701,l)
);
}
);
width = 596;
}
);
note = R;
unicode = 82;
},
{
glyphname = S;
kernLeft = Scaron;
kernRight = Scaron;
lastChange = "2023-04-04 03:15:02 +0000";
layers = (
{
hints = (
{
horizontal = 1;
place = (-9, 14);
place = (-9, 14);
type = Stem;
},
{
horizontal = 1;
place = (709, 14);
place = (709, 14);
type = Stem;
},
{
place = (52, 15);
place = (52, 15);
type = Stem;
},
{
place = (538, 15);
place = (538, 15);
type = Stem;
},
{
place = (22, 15);
place = (22, 15);
type = Stem;
}
);
layerId = m01;
shapes = (
{
closed = 1;
nodes = (
(508,643,o),
(426,723,o),
(279,723,cs),
(141,723,o),
(52,659,o),
(52,555,cs),
(52,446,o),
(134,401,o),
(289,373,cs),
(452,344,o),
(538,302,o),
(538,184,cs),
(538,77,o),
(454,5,o),
(307,5,cs),
(129,5,o),
(47,98,o),
(37,227,c),
(22,227,l),
(31,92,o),
(120,-9,o),
(307,-9,cs),
(462,-9,o),
(553,68,o),
(553,184,cs),
(553,313,o),
(457,357,o),
(291,387,cs),
(142,414,o),
(67,454,o),
(67,555,cs),
(67,651,o),
(148,709,o),
(279,709,cs),
(415,709,o),
(494,637,o),
(511,521,c),
(526,521,l)
);
}
);
width = 589;
}
);
note = S;
unicode = 83;
},
{
glyphname = T;
kernLeft = T;
kernRight = T;
lastChange = "2023-04-04 03:15:07 +0000";
layers = (
{
hints = (
{
horizontal = 1;
place = (0, 21);
target = up;
type = BottomGhost;
},
{
horizontal = 1;
place = (701, 14);
place = (701, 14);
type = Stem;
},
{
place = (287, 15);
place = (287, 15);
type = Stem;
}
);
layerId = m01;
shapes = (
{
closed = 1;
nodes = (
(22,701,l),
(287,701,l),
(287,0,l),
(302,0,l),
(302,701,l),
(567,701,l),
(567,715,l),
(22,715,l)
);
}
);
width = 589;
}
);
note = T;
unicode = 84;
},
{
glyphname = U;
kernLeft = U;
kernRight = U;
lastChange = "2023-04-04 03:15:13 +0000";
layers = (
{
hints = (
{
horizontal = 1;
place = (-9, 14);
place = (-9, 14);
type = Stem;
},
{
horizontal = 1;
place = (715, -20);
target = down;
type = TopGhost;
},
{
place = (55, 15);
place = (55, 15);
type = Stem;
},
{
place = (556, 15);
place = (556, 15);
type = Stem;
}
);
layerId = m01;
shapes = (
{
closed = 1;
nodes = (
(55,236,ls),
(55,58,o),
(171,-9,o),
(313,-9,cs),
(452,-9,o),
(571,58,o),
(571,236,cs),
(571,715,l),
(556,715,l),
(556,236,ls),
(556,68,o),
(445,5,o),
(313,5,cs),
(178,5,o),
(70,68,o),
(70,236,cs),
(70,715,l),
(55,715,l)
);
}
);
width = 626;
}
);
note = U;
unicode = 85;
},
{
glyphname = V;
kernLeft = V;
kernRight = V;
lastChange = "2023-04-04 03:15:54 +0000";
layers = (
{
hints = (
{
horizontal = 1;
place = (0, 22);
place = (0, 22);
type = Stem;
},
{
horizontal = 1;
place = (715, -20);
target = down;
type = TopGhost;
},
{
place = (10, 566);
place = (10, 566);
type = Stem;
}
);
layerId = m01;
shapes = (
{
closed = 1;
nodes = (
(285,0,l),
(301,0,l),
(576,715,l),
(559,715,l),
(293,22,l),
(293,22,l),
(27,715,l),
(10,715,l)
);
}
);
width = 586;
}
);
note = V;
unicode = 86;
},
{
glyphname = W;
kernLeft = W;
kernRight = W;
lastChange = "2023-04-04 04:29:22 +0000";
layers = (
{
hints = (
{
horizontal = 1;
place = (0, 21);
target = up;
type = BottomGhost;
},
{
horizontal = 1;
place = (715, -20);
target = down;
type = TopGhost;
},
{
place = (14, 849);
place = (14, 849);
type = Stem;
},
{
horizontal = 1;
place = (0, 28);
place = (0, 28);
type = Stem;
},
{
horizontal = 1;
place = (685, 30);
place = (685, 30);
type = Stem;
}
);
layerId = m01;
shapes = (
{
closed = 1;
nodes = (
(229,0,l),
(245,0,l),
(438,685,l),
(438,685,l),
(632,0,l),
(648,0,l),
(863,715,l),
(846,715,l),
(640,28,l),
(640,28,l),
(447,715,l),
(430,715,l),
(237,29,l),
(237,29,l),
(31,715,l),
(14,715,l)
);
}
);
width = 877;
}
);
note = W;
unicode = 87;
},
{
glyphname = X;
kernLeft = X;
kernRight = X;
lastChange = "2023-04-04 04:44:17 +0000";
layers = (
{
hints = (
{
horizontal = 1;
place = (0, 21);
target = up;
type = BottomGhost;
},
{
horizontal = 1;
place = (715, -20);
target = down;
type = TopGhost;
},
{
place = (14, 550);
place = (14, 550);
type = Stem;
}
);
layerId = m01;
shapes = (
{
closed = 1;
nodes = (
(282,368,l),
(14,0,l),
(32,0,l),
(291,355,l),
(291,355,l),
(546,0,l),
(564,0,l),
(300,368,l),
(554,715,l),
(536,715,l),
(291,380,l),
(291,380,l),
(52,715,l),
(34,715,l)
);
}
);
width = 578;
}
);
note = X;
unicode = 88;
},
{
glyphname = Y;
kernLeft = Yacute;
kernRight = Yacute;
lastChange = "2023-04-04 04:47:12 +0000";
layers = (
{
hints = (
{
horizontal = 1;
place = (0, 21);
target = up;
type = BottomGhost;
},
{
horizontal = 1;
place = (715, -20);
target = down;
type = TopGhost;
},
{
place = (279, 15);
place = (279, 15);
type = Stem;
}
);
layerId = m01;
shapes = (
{
closed = 1;
nodes = (
(279,324,l),
(279,0,l),
(294,0,l),
(294,324,l),
(563,715,l),
(546,715,l),
(286,337,l),
(286,337,l),
(27,715,l),
(10,715,l)
);
}
);
width = 573;
}
);
note = Y;
unicode = 89;
},
{
glyphname = Z;
kernLeft = Zcaron;
kernRight = Zcaron;
lastChange = "2023-04-04 16:29:13 +0000";
layers = (
{
hints = (
{
horizontal = 1;
place = (0, 14);
place = (0, 14);
type = Stem;
},
{
horizontal = 1;
place = (701, 14);
place = (701, 14);
type = Stem;
},
{
place = (30, 18);
place = (30, 18);
type = Stem;
},
{
place = (523, 18);
place = (523, 18);
type = Stem;
}
);
layerId = m01;
shapes = (
{
closed = 1;
nodes = (
(53,701,l),
(523,701,l),
(523,701,l),
(30,14,l),
(30,0,l),
(565,0,l),
(565,14,l),
(48,14,l),
(48,14,l),
(541,701,l),
(541,715,l),
(53,715,l)
);
}
);
width = 601;
}
);
note = Z;
unicode = 90;
},
{
glyphname = a;
kernLeft = a;
kernRight = a;
lastChange = "2023-04-04 19:43:48 +0000";
layers = (
{
hints = (
{
horizontal = 1;
place = (-4, 14);
place = (-4, 14);
type = Stem;
},
{
horizontal = 1;
place = (510, 14);
place = (510, 14);
type = Stem;
},
{
place = (24, 15);
place = (24, 15);
type = Stem;
},
{
place = (52, 15);
place = (52, 15);
type = Stem;
},
{
place = (395, 15);
place = (395, 15);
type = Stem;
},
{
horizontal = 1;
place = (-8, 14);
place = (-8, 14);
type = Stem;
}
);
layerId = m01;
shapes = (
{
closed = 1;
nodes = (
(67,367,l),
(75,467,o),
(135,510,o),
(240,510,cs),
(346,510,o),
(395,457,o),
(395,367,cs),
(395,307,o),
(353,292,o),
(222,275,cs),
(113,261,o),
(24,234,o),
(24,129,cs),
(24,46,o),
(90,-8,o),
(190,-8,cs),
(291,-8,o),
(372,44,o),
(393,116,c),
(395,116,l),
(395,68,ls),
(395,31,o),
(402,-4,o),
(451,-4,cs),
(465,-4,o),
(478,0,o),
(484,4,c),
(484,18,l),
(482,18,l),
(475,14,o),
(465,10,o),
(451,10,cs),
(424,10,o),
(410,22,o),
(410,69,cs),
(410,367,ls),
(410,467,o),
(354,524,o),
(240,524,cs),
(105,524,o),
(57,451,o),
(52,367,c)
);
},
{
closed = 1;
nodes = (
(395,186,ls),
(395,75,o),
(305,6,o),
(190,6,cs),
(121,6,o),
(39,38,o),
(39,129,cs),
(39,219,o),
(106,248,o),
(228,263,cs),
(349,278,o),
(379,296,o),
(395,319,c)
);
}
);
width = 489;
}
);
note = a;
unicode = 97;
},
{
glyphname = b;
kernLeft = b;
kernRight = thorn;
lastChange = "2023-04-04 19:43:51 +0000";
layers = (
{
hints = (
{
horizontal = 1;
place = (0, 21);
target = up;
type = BottomGhost;
},
{
horizontal = 1;
place = (510, 14);
place = (510, 14);
type = Stem;
},
{
horizontal = 1;
place = (715, -20);
target = down;
type = TopGhost;
},
{
place = (55, 15);
place = (55, 15);
type = Stem;
},
{
place = (488, 15);
place = (488, 15);
type = Stem;
},
{
horizontal = 1;
place = (-8, 14);
place = (-8, 14);
type = Stem;
}
);
layerId = m01;
shapes = (
{
closed = 1;
nodes = (
(55,0,l),
(70,0,l),
(70,155,l),
(71,155,l),
(94,58,o),
(176,-8,o),
(280,-8,cs),
(408,-8,o),
(503,97,o),
(503,259,cs),
(503,440,o),
(397,524,o),
(282,524,cs),
(190,524,o),
(101,471,o),
(71,357,c),
(70,357,l),
(70,715,l),
(55,715,l)
);
},
{
closed = 1;
nodes = (
(389,510,o),
(488,434,o),
(488,258,cs),
(488,102,o),
(396,6,o),
(279,6,cs),
(158,6,o),
(70,103,o),
(70,256,cs),
(70,410,o),
(158,510,o),
(278,510,cs)
);
}
);
width = 529;
}
);
note = b;
unicode = 98;
},
{
glyphname = c;
kernLeft = c;
kernRight = c;
lastChange = "2023-04-04 05:11:31 +0000";
layers = (
{
hints = (
{
horizontal = 1;
place = (-8, 14);
place = (-8, 14);
type = Stem;
},
{
horizontal = 1;
place = (510, 14);
place = (510, 14);
type = Stem;
},
{
place = (26, 15);
place = (26, 15);
type = Stem;
}
);
layerId = m01;
shapes = (
{
closed = 1;
nodes = (
(462,463,o),
(380,524,o),
(264,524,cs),
(116,524,o),
(26,403,o),
(26,260,cs),
(26,116,o),
(117,-8,o),
(264,-8,cs),
(402,-8,o),
(472,71,o),
(485,174,c),
(470,174,l),
(456,68,o),
(383,6,o),
(264,6,cs),
(144,6,o),
(41,102,o),
(41,260,cs),
(41,420,o),
(145,510,o),
(264,510,cs),
(358,510,o),
(444,467,o),
(468,361,c),
(483,361,l)
);
}
);
width = 507;
}
);
note = c;
unicode = 99;
},
{
glyphname = d;
kernLeft = d;
lastChange = "2023-04-04 19:43:54 +0000";
layers = (
{
hints = (
{
horizontal = 1;
place = (-7, 14);
place = (-7, 14);
type = Stem;
},
{
horizontal = 1;
place = (510, 14);
place = (510, 14);
type = Stem;
},
{
horizontal = 1;
place = (715, -20);
target = down;
type = TopGhost;
},
{
place = (26, 15);
place = (26, 15);
type = Stem;
},
{
place = (459, 15);
place = (459, 15);
type = Stem;
},
{
horizontal = 1;
place = (0, 21);
target = up;
type = BottomGhost;
}
);
layerId = m01;
shapes = (
{
closed = 1;
nodes = (
(459,358,l),
(458,358,l),
(427,473,o),
(340,524,o),
(247,524,cs),
(132,524,o),
(26,440,o),
(26,259,cs),
(26,97,o),
(121,-7,o),
(249,-7,cs),
(352,-7,o),
(433,55,o),
(458,157,c),
(459,157,l),
(459,0,l),
(474,0,l),
(474,715,l),
(459,715,l)
);
},
{
closed = 1;
nodes = (
(371,510,o),
(459,415,o),
(459,256,cs),
(459,98,o),
(371,7,o),
(250,7,cs),
(133,7,o),
(41,102,o),
(41,258,cs),
(41,434,o),
(140,510,o),
(251,510,cs)
);
}
);
width = 529;
}
);
note = d;
unicode = 100;
},
{
glyphname = e;
kernLeft = c;
kernRight = e;
lastChange = "2023-04-04 19:43:57 +0000";
layers = (
{
hints = (
{
horizontal = 1;
place = (-8, 14);
place = (-8, 14);
type = Stem;
},
{
horizontal = 1;
place = (265, 14);
place = (265, 14);
type = Stem;
},
{
horizontal = 1;
place = (510, 14);
place = (510, 14);
type = Stem;
},
{
place = (26, 15);
place = (26, 15);
type = Stem;
},
{
place = (467, 15);
place = (467, 15);
type = Stem;
}
);
layerId = m01;
shapes = (
{
closed = 1;
nodes = (
(476,416,o),
(399,524,o),
(258,524,cs),
(112,524,o),
(26,408,o),
(26,266,cs),
(26,110,o),
(109,-8,o),
(263,-8,cs),
(383,-8,o),
(454,66,o),
(473,151,c),
(458,151,l),
(432,54,o),
(357,6,o),
(263,6,cs),
(123,6,o),
(42,113,o),
(41,265,c),
(482,265,l)
);
},
{
closed = 1;
nodes = (
(41,279,l),
(46,425,o),
(144,510,o),
(258,510,cs),
(358,510,o),
(455,445,o),
(467,279,c)
);
}
);
width = 506;
}
);
note = e;
unicode = 101;
},
{
glyphname = f;
kernLeft = f;
kernRight = f;
lastChange = "2023-04-04 05:27:05 +0000";
layers = (
{
hints = (
{
horizontal = 1;
place = (0, 21);
target = up;
type = BottomGhost;
},
{
horizontal = 1;
place = (503, 14);
place = (503, 14);
type = Stem;
},
{
horizontal = 1;
place = (707, 14);
place = (707, 14);
type = Stem;
},
{
place = (92, 15);
place = (92, 15);
type = Stem;
}
);
layerId = m01;
shapes = (
{
closed = 1;
nodes = (
(22,503,l),
(92,503,l),
(92,0,l),
(107,0,l),
(107,503,l),
(231,503,l),
(231,517,l),
(107,517,l),
(107,614,ls),
(107,687,o),
(140,707,o),
(191,707,cs),
(210,707,o),
(213,707,o),
(232,706,c),
(232,720,l),
(213,721,o),
(207,721,o),
(191,721,cs),
(129,721,o),
(92,694,o),
(92,615,cs),
(92,517,l),
(22,517,l)
);
}
);
width = 255;
}
);
note = f;
unicode = 102;
},
{
glyphname = g;
kernLeft = g;
kernRight = g;
lastChange = "2023-04-04 19:43:59 +0000";
layers = (
{
hints = (
{
horizontal = 1;
place = (-169, 14);
place = (-169, 14);
type = Stem;
},
{
horizontal = 1;
place = (5, 14);
place = (5, 14);
type = Stem;
},
{
horizontal = 1;
place = (510, 14);
place = (510, 14);
type = Stem;
},
{
place = (26, 15);
place = (26, 15);
type = Stem;
},
{
place = (454, 15);
place = (454, 15);
type = Stem;
},
{
horizontal = 1;
place = (517, -20);
target = down;
type = TopGhost;
}
);
layerId = m01;
shapes = (
{
closed = 1;
nodes = (
(454,356,l),
(453,356,l),
(432,449,o),
(358,524,o),
(245,524,cs),
(130,524,o),
(26,439,o),
(26,265,cs),
(26,109,o),
(120,5,o),
(248,5,cs),
(351,5,o),
(426,67,o),
(453,166,c),
(454,166,l),
(454,23,ls),
(454,-79,o),
(392,-155,o),
(259,-155,cs),
(141,-155,o),
(77,-116,o),
(65,-46,c),
(50,-46,l),
(61,-125,o),
(133,-169,o),
(259,-169,cs),
(396,-169,o),
(469,-93,o),
(469,23,cs),
(469,517,l),
(454,517,l)
);
},
{
closed = 1;
nodes = (
(369,510,o),
(454,413,o),
(454,262,cs),
(454,113,o),
(369,19,o),
(249,19,cs),
(132,19,o),
(41,114,o),
(41,264,cs),
(41,431,o),
(138,510,o),
(249,510,cs)
);
}
);
width = 524;
}
);
note = g;
unicode = 103;
},
{
glyphname = h;
kernLeft = b;
kernRight = h;
lastChange = "2023-04-04 05:35:03 +0000";
layers = (
{
hints = (
{
horizontal = 1;
place = (0, 21);
target = up;
type = BottomGhost;
},
{
horizontal = 1;
place = (509, 14);
place = (509, 14);
type = Stem;
},
{
horizontal = 1;
place = (715, -20);
target = down;
type = TopGhost;
},
{
place = (55, 15);
place = (55, 15);
type = Stem;
},
{
place = (412, 15);
place = (412, 15);
type = Stem;
}
);
layerId = m01;
shapes = (
{
closed = 1;
nodes = (
(55,0,l),
(70,0,l),
(70,357,ls),
(70,429,o),
(145,509,o),
(261,509,cs),
(355,509,o),
(412,460,o),
(412,369,cs),
(412,0,l),
(427,0,l),
(427,370,ls),
(427,454,o),
(377,523,o),
(262,523,cs),
(156,523,o),
(98,468,o),
(72,419,c),
(70,419,l),
(70,715,l),
(55,715,l)
);
}
);
width = 479;
}
);
note = h;
unicode = 104;
},
{
glyphname = i;
kernLeft = b;
lastChange = "2023-04-04 05:36:42 +0000";
layers = (
{
hints = (
{
horizontal = 1;
place = (0, 21);
target = up;
type = BottomGhost;
},
{
horizontal = 1;
place = (517, -20);
target = down;
type = TopGhost;
},
{
horizontal = 1;
place = (650, 56);
place = (650, 56);
type = Stem;
},
{
place = (55, 15);
place = (55, 15);
type = Stem;
}
);
layerId = m01;
shapes = (
{
closed = 1;
nodes = (
(55,0,l),
(70,0,l),
(70,517,l),
(55,517,l)
);
},
{
closed = 1;
nodes = (
(55,650,l),
(70,650,l),
(70,706,l),
(55,706,l)
);
}
);
width = 125;
}
);
note = i;
unicode = 105;
},
{
glyphname = j;
kernLeft = j;
kernRight = j;
lastChange = "2023-04-04 05:40:24 +0000";
layers = (
{
hints = (
{
horizontal = 1;
place = (-147, 14);
place = (-147, 14);
type = Stem;
},
{
horizontal = 1;
place = (517, -20);
target = down;
type = TopGhost;
},
{
horizontal = 1;
place = (650, 56);
place = (650, 56);
type = Stem;
},
{
place = (77, 15);
place = (77, 15);
type = Stem;
}
);
layerId = m01;
shapes = (
{
closed = 1;
nodes = (
(77,-64,ls),
(77,-109,o),
(65,-133,o),
(15,-133,cs),
(-1,-133,o),
(-11,-131,o),
(-28,-126,c),
(-28,-140,l),
(-15,-144,o),
(0,-147,o),
(15,-147,cs),
(72,-147,o),
(92,-120,o),
(92,-64,cs),
(92,517,l),
(77,517,l)
);
},
{
closed = 1;
nodes = (
(77,650,l),
(92,650,l),
(92,706,l),
(77,706,l)
);
}
);
width = 147;
}
);
note = j;
unicode = 106;
},
{
glyphname = k;
kernLeft = b;
kernRight = k;
lastChange = "2023-04-04 05:43:42 +0000";
layers = (
{
hints = (
{
horizontal = 1;
place = (0, 21);
target = up;
type = BottomGhost;
},
{
horizontal = 1;
place = (517, -20);
target = down;
type = TopGhost;
},
{
horizontal = 1;
place = (715, -20);
target = down;
type = TopGhost;
},
{
place = (55, 15);
place = (55, 15);
type = Stem;
}
);
layerId = m01;
shapes = (
{
closed = 1;
nodes = (
(55,0,l),
(70,0,l),
(70,191,l),
(178,297,l),
(420,0,l),
(437,0,l),
(188,307,l),
(401,517,l),
(381,517,l),
(70,210,l),
(70,715,l),
(55,715,l)
);
}
);
width = 436;
}
);
note = k;
unicode = 107;
},
{
glyphname = l;
kernLeft = b;
lastChange = "2023-04-04 05:47:46 +0000";
layers = (
{
hints = (
{
horizontal = 1;
place = (0, 21);
target = up;
type = BottomGhost;
},
{
horizontal = 1;
place = (715, -20);
target = down;
type = TopGhost;
},
{
place = (58, 15);
place = (58, 15);
type = Stem;
}
);
layerId = m01;
shapes = (
{
closed = 1;
nodes = (
(58,0,l),
(73,0,l),
(73,715,l),
(58,715,l)
);
}
);
width = 131;
}
);
note = l;
unicode = 108;
},
{
glyphname = m;
kernLeft = m;
kernRight = h;
lastChange = "2023-04-04 05:49:35 +0000";
layers = (
{
hints = (
{
horizontal = 1;
place = (0, 21);
target = up;
type = BottomGhost;
},
{
horizontal = 1;
place = (509, 14);
place = (509, 14);
type = Stem;
},
{
place = (55, 15);
place = (55, 15);
type = Stem;
},
{
place = (376, 15);
place = (376, 15);
type = Stem;
},
{
place = (697, 15);
place = (697, 15);
type = Stem;
},
{
horizontal = 1;
place = (517, -20);
target = down;
type = TopGhost;
}
);
layerId = m01;
shapes = (
{
closed = 1;
nodes = (
(55,0,l),
(70,0,l),
(70,357,ls),
(70,429,o),
(135,509,o),
(243,509,cs),
(328,509,o),
(376,460,o),
(376,369,cs),
(376,0,l),
(391,0,l),
(391,357,ls),
(391,429,o),
(456,509,o),
(564,509,cs),
(649,509,o),
(697,460,o),
(697,369,cs),
(697,0,l),
(712,0,l),
(712,370,ls),
(712,454,o),
(671,523,o),
(565,523,cs),
(471,523,o),
(413,469,o),
(389,411,c),
(387,411,l),
(375,476,o),
(332,523,o),
(244,523,cs),
(147,523,o),
(96,468,o),
(72,419,c),
(70,419,l),
(70,517,l),
(55,517,l)
);
}
);
width = 764;
}
);
note = m;
unicode = 109;
},
{
glyphname = n;
kernLeft = m;
kernRight = h;
lastChange = "2023-04-04 05:49:44 +0000";
layers = (
{
hints = (
{
horizontal = 1;
place = (0, 21);
target = up;
type = BottomGhost;
},
{
horizontal = 1;
place = (517, -20);
target = down;
type = TopGhost;
},
{
place = (55, 15);
place = (55, 15);
type = Stem;
},
{
place = (412, 15);
place = (412, 15);
type = Stem;
},
{
horizontal = 1;
place = (509, 14);
place = (509, 14);
type = Stem;
}
);
layerId = m01;
shapes = (
{
closed = 1;
nodes = (
(55,0,l),
(70,0,l),
(70,357,ls),
(70,429,o),
(144,509,o),
(261,509,cs),
(355,509,o),
(412,460,o),
(412,369,cs),
(412,0,l),
(427,0,l),
(427,370,ls),
(427,454,o),
(377,523,o),
(262,523,cs),
(156,523,o),
(98,468,o),
(72,419,c),
(70,419,l),
(70,517,l),
(55,517,l)
);
}
);
width = 479;
}
);
note = n;
unicode = 110;
},
{
glyphname = o;
kernLeft = c;
kernRight = o;
lastChange = "2023-04-04 19:44:03 +0000";
layers = (
{
hints = (
{
horizontal = 1;
place = (-8, 14);
place = (-8, 14);
type = Stem;
},
{
horizontal = 1;
place = (510, 14);
place = (510, 14);
type = Stem;
},
{
place = (26, 15);
place = (26, 15);
type = Stem;
},
{
place = (487, 15);
place = (487, 15);
type = Stem;
}
);
layerId = m01;
shapes = (
{
closed = 1;
nodes = (
(116,524,o),
(26,402,o),
(26,259,cs),
(26,116,o),
(116,-8,o),
(264,-8,cs),
(413,-8,o),
(502,117,o),
(502,260,cs),
(502,403,o),
(413,524,o),
(264,524,cs)
);
},
{
closed = 1;
nodes = (
(383,510,o),
(487,420,o),
(487,260,cs),
(487,100,o),
(383,6,o),
(264,6,cs),
(145,6,o),
(41,99,o),
(41,259,cs),
(41,419,o),
(145,510,o),
(264,510,cs)
);
}
);
width = 528;
}
);
note = o;
unicode = 111;
},
{
glyphname = p;
kernLeft = p;
kernRight = thorn;
lastChange = "2023-04-04 19:44:05 +0000";
layers = (
{
hints = (
{
horizontal = 1;
place = (-166, 21);
target = up;
type = BottomGhost;
},
{
horizontal = 1;
place = (-8, 14);
place = (-8, 14);
type = Stem;
},
{
horizontal = 1;
place = (510, 14);
place = (510, 14);
type = Stem;
},
{
place = (55, 15);
place = (55, 15);
type = Stem;
},
{
place = (488, 15);
place = (488, 15);
type = Stem;
},
{
horizontal = 1;
place = (517, -20);
target = down;
type = TopGhost;
}
);
layerId = m01;
shapes = (
{
closed = 1;
nodes = (
(55,-166,l),
(70,-166,l),
(70,155,l),
(71,155,l),
(94,58,o),
(176,-8,o),
(280,-8,cs),
(408,-8,o),
(503,97,o),
(503,259,cs),
(503,440,o),
(397,524,o),
(282,524,cs),
(190,524,o),
(101,471,o),
(71,357,c),
(70,357,l),
(70,517,l),
(55,517,l)
);
},
{
closed = 1;
nodes = (
(389,510,o),
(488,434,o),
(488,258,cs),
(488,102,o),
(396,6,o),
(279,6,cs),
(158,6,o),
(70,103,o),
(70,256,cs),
(70,410,o),
(158,510,o),
(278,510,cs)
);
}
);
width = 529;
}
);
note = p;
unicode = 112;
},
{
glyphname = q;
kernLeft = d;
kernRight = q;
lastChange = "2023-04-04 19:44:07 +0000";
layers = (
{
hints = (
{
horizontal = 1;
place = (-166, 21);
target = up;
type = BottomGhost;
},
{
horizontal = 1;
place = (-7, 14);
place = (-7, 14);
type = Stem;
},
{
horizontal = 1;
place = (510, 14);
place = (510, 14);
type = Stem;
},
{
place = (29, 15);
place = (29, 15);
type = Stem;
},
{
place = (462, 15);
place = (462, 15);
type = Stem;
},
{
horizontal = 1;
place = (517, -20);
target = down;
type = TopGhost;
}
);
layerId = m01;
shapes = (
{
closed = 1;
nodes = (
(462,517,l),
(462,358,l),
(461,358,l),
(430,473,o),
(343,524,o),
(250,524,cs),
(135,524,o),
(29,440,o),
(29,259,cs),
(29,97,o),
(124,-7,o),
(252,-7,cs),
(355,-7,o),
(436,55,o),
(461,157,c),
(462,157,l),
(462,-166,l),
(477,-166,l),
(477,517,l)
);
},
{
closed = 1;
nodes = (
(374,510,o),
(462,415,o),
(462,256,cs),
(462,98,o),
(374,7,o),
(253,7,cs),
(136,7,o),
(44,102,o),
(44,258,cs),
(44,434,o),
(143,510,o),
(254,510,cs)
);
}
);
width = 532;
}
);
note = q;
unicode = 113;
},
{
glyphname = r;
kernLeft = m;
kernRight = r;
lastChange = "2023-04-04 06:00:44 +0000";
layers = (
{
hints = (
{
horizontal = 1;
place = (0, 21);
target = up;
type = BottomGhost;
},
{
horizontal = 1;
place = (517, -20);
target = down;
type = TopGhost;
},
{
place = (55, 15);
place = (55, 15);
type = Stem;
},
{
horizontal = 1;
place = (509, 14);
place = (509, 14);
type = Stem;
}
);
layerId = m01;
shapes = (
{
closed = 1;
nodes = (
(55,0,l),
(70,0,l),
(70,344,ls),
(70,413,o),
(136,509,o),
(239,509,cs),
(257,509,o),
(272,507,o),
(284,503,c),
(284,517,l),
(278,520,o),
(256,523,o),
(240,523,cs),
(170,523,o),
(107,483,o),
(72,409,c),
(70,409,l),
(70,517,l),
(55,517,l)
);
}
);
width = 302;
}
);
note = r;
unicode = 114;
},
{
glyphname = s;
kernLeft = scaron;
kernRight = scaron;
lastChange = "2023-04-04 06:04:09 +0000";
layers = (
{
hints = (
{
horizontal = 1;
place = (-8, 14);
place = (-8, 14);
type = Stem;
},
{
horizontal = 1;
place = (510, 14);
place = (510, 14);
type = Stem;
},
{
place = (22, 15);
place = (22, 15);
type = Stem;
},
{
place = (416, 14);
place = (416, 14);
type = Stem;
},
{
place = (44, 15);
place = (44, 15);
type = Stem;
}
);
layerId = m01;
shapes = (
{
closed = 1;
nodes = (
(393,460,o),
(343,524,o),
(217,524,cs),
(96,524,o),
(44,469,o),
(44,399,cs),
(44,329,o),
(89,288,o),
(230,268,cs),
(367,249,o),
(416,213,o),
(416,131,cs),
(416,55,o),
(352,6,o),
(236,6,cs),
(106,6,o),
(45,66,o),
(37,161,c),
(22,161,l),
(30,58,o),
(98,-8,o),
(236,-8,cs),
(350,-8,o),
(430,39,o),
(430,131,cs),
(430,221,o),
(378,261,o),
(233,281,cs),
(99,299,o),
(59,338,o),
(59,399,cs),
(59,461,o),
(103,510,o),
(217,510,cs),
(334,510,o),
(378,454,o),
(392,374,c),
(407,374,l)
);
}
);
width = 453;
}
);
note = s;
unicode = 115;
},
{
glyphname = t;
kernLeft = t;
kernRight = t;
lastChange = "2023-04-04 06:06:49 +0000";
layers = (
{
hints = (
{
horizontal = 1;
place = (-6, 14);
place = (-6, 14);
type = Stem;
},
{
horizontal = 1;
place = (503, 14);
place = (503, 14);
type = Stem;
},
{
place = (92, 15);
place = (92, 15);
type = Stem;
}
);
layerId = m01;
shapes = (
{
closed = 1;
nodes = (
(22,503,l),
(92,503,l),
(92,77,ls),
(92,21,o),
(117,-6,o),
(181,-6,cs),
(198,-6,o),
(223,-3,o),
(236,1,c),
(236,15,l),
(219,10,o),
(199,8,o),
(181,8,cs),
(126,8,o),
(107,32,o),
(107,77,cs),
(107,503,l),
(236,503,l),
(236,517,l),
(107,517,l),
(107,680,l),
(92,680,l),
(92,517,l),
(22,517,l)
);
}
);
width = 265;
}
);
note = t;
unicode = 116;
},
{
glyphname = u;
kernLeft = u;
kernRight = u;
lastChange = "2023-04-04 06:06:58 +0000";
layers = (
{
hints = (
{
horizontal = 1;
place = (0, 21);
target = up;
type = BottomGhost;
},
{
horizontal = 1;
place = (517, -20);
target = down;
type = TopGhost;
},
{
place = (52, 15);
place = (52, 15);
type = Stem;
},
{
place = (403, 15);
place = (403, 15);
type = Stem;
},
{
horizontal = 1;
place = (-7, 14);
place = (-7, 14);
type = Stem;
}
);
layerId = m01;
shapes = (
{
closed = 1;
nodes = (
(52,146,ls),
(52,62,o),
(101,-7,o),
(214,-7,cs),
(316,-7,o),
(377,47,o),
(401,97,c),
(403,97,l),
(403,0,l),
(418,0,l),
(418,517,l),
(403,517,l),
(403,159,ls),
(403,87,o),
(329,7,o),
(215,7,cs),
(123,7,o),
(67,56,o),
(67,147,cs),
(67,517,l),
(52,517,l)
);
}
);
width = 473;
}
);
note = u;
unicode = 117;
},
{
glyphname = v;
kernLeft = v;
kernRight = v;
lastChange = "2023-04-04 06:08:51 +0000";
layers = (
{
hints = (
{
horizontal = 1;
place = (0, 20);
place = (0, 20);
type = Stem;
},
{
horizontal = 1;
place = (517, -20);
target = down;
type = TopGhost;
},
{
place = (2, 416);
place = (2, 416);
type = Stem;
}
);
layerId = m01;
shapes = (
{
closed = 1;
nodes = (
(202,0,l),
(218,0,l),
(418,517,l),
(402,517,l),
(210,20,l),
(210,20,l),
(18,517,l),
(2,517,l)
);
}
);
width = 420;
}
);
note = v;
unicode = 118;
},
{
glyphname = w;
kernLeft = w;
kernRight = w;
lastChange = "2023-04-04 06:12:03 +0000";
layers = (
{
hints = (
{
horizontal = 1;
place = (0, 24);
place = (0, 24);
type = Stem;
},
{
horizontal = 1;
place = (491, 26);
place = (491, 26);
type = Stem;
},
{
place = (4, 686);
place = (4, 686);
type = Stem;
}
);
layerId = m01;
shapes = (
{
closed = 1;
nodes = (
(178,0,l),
(194,0,l),
(346,491,l),
(346,491,l),
(495,0,l),
(511,0,l),
(690,517,l),
(674,517,l),
(503,24,l),
(503,24,l),
(354,517,l),
(338,517,l),
(186,25,l),
(186,25,l),
(20,517,l),
(4,517,l)
);
}
);
width = 694;
}
);
note = w;
unicode = 119;
},
{
glyphname = x;
kernLeft = x;
kernRight = x;
lastChange = "2023-04-04 06:13:18 +0000";
layers = (
{
hints = (
{
horizontal = 1;
place = (0, 21);
target = up;
type = BottomGhost;
},
{
horizontal = 1;
place = (517, -20);
target = down;
type = TopGhost;
},
{
place = (6, 451);
place = (6, 451);
type = Stem;
}
);
layerId = m01;
shapes = (
{
closed = 1;
nodes = (
(222,275,l),
(6,0,l),
(25,0,l),
(231,263,l),
(231,263,l),
(438,0,l),
(457,0,l),
(241,275,l),
(430,517,l),
(411,517,l),
(231,287,l),
(231,287,l),
(52,517,l),
(33,517,l)
);
}
);
width = 463;
}
);
note = x;
unicode = 120;
},
{
glyphname = y;
kernLeft = yacute;
kernRight = yacute;
lastChange = "2023-04-04 06:34:40 +0000";
layers = (
{
hints = (
{
horizontal = 1;
place = (-168, 14);
place = (-168, 14);
type = Stem;
},
{
horizontal = 1;
place = (517, -20);
target = down;
type = TopGhost;
},
{
place = (2, 425);
place = (2, 425);
type = Stem;
},
{
horizontal = 1;
place = (-160, 21);
target = up;
type = BottomGhost;
}
);
layerId = m01;
shapes = (
{
closed = 1;
nodes = (
(209,20,l),
(201,0,o),
(193,-19,o),
(185,-39,cs),
(143,-143,o),
(124,-154,o),
(79,-154,cs),
(60,-154,o),
(42,-150,o),
(29,-145,c),
(29,-160,l),
(40,-164,o),
(57,-168,o),
(79,-168,cs),
(136,-168,o),
(156,-150,o),
(199,-45,cs),
(427,517,l),
(411,517,l),
(217,40,l),
(217,40,l),
(19,517,l),
(2,517,l)
);
}
);
width = 429;
}
);
note = y;
unicode = 121;
},
